<?xml version="1.0" encoding="UTF-8" standalone="no"?>
<!-- Created with Inkscape (http://www.inkscape.org/) -->

<svg
   xmlns:dc="http://purl.org/dc/elements/1.1/"
   xmlns:cc="http://creativecommons.org/ns#"
   xmlns:rdf="http://www.w3.org/1999/02/22-rdf-syntax-ns#"
   xmlns:svg="http://www.w3.org/2000/svg"
   xmlns="http://www.w3.org/2000/svg"
   xmlns:sodipodi="http://sodipodi.sourceforge.net/DTD/sodipodi-0.dtd"
   xmlns:inkscape="http://www.inkscape.org/namespaces/inkscape"
   width="20"
   height="20"
   viewBox="0 0 5.2916665 5.2916668"
   version="1.1"
   id="svg4560"
   inkscape:version="0.92.0 r15299"
   sodipodi:docname="satellite-icon.svg">
  <defs
     id="defs4554" />
  <sodipodi:namedview
     id="base"
     pagecolor="#ffffff"
     bordercolor="#666666"
     borderopacity="1.0"
     inkscape:pageopacity="0.0"
     inkscape:pageshadow="2"
     inkscape:zoom="11.313709"
     inkscape:cx="14.804122"
     inkscape:cy="10.806615"
     inkscape:document-units="mm"
     inkscape:current-layer="layer1"
     showgrid="false"
     units="px"
     inkscape:window-width="1920"
     inkscape:window-height="1017"
     inkscape:window-x="-8"
     inkscape:window-y="-8"
     inkscape:window-maximized="1" />
  <metadata
     id="metadata4557">
    <rdf:RDF>
      <cc:Work
         rdf:about="">
        <dc:format>image/svg+xml</dc:format>
        <dc:type
           rdf:resource="http://purl.org/dc/dcmitype/StillImage" />
        <dc:title></dc:title>
      </cc:Work>
    </rdf:RDF>
  </metadata>
  <g
     inkscape:label="Layer 1"
     inkscape:groupmode="layer"
     id="layer1"
     transform="translate(0,-291.70832)">
    <g
       id="g5351"
       transform="matrix(0.26458333,0,0,0.26458333,-37.182246,258.515)">
      <g
         id="g5277"
         transform="matrix(0.06845806,0,0,0.06845806,140.9877,125.95702)">
        <g
           id="g5275">
          <g
             id="XMLID_29_">
            <g
               id="g5266">
              <path
                 id="path5240"
                 d="m 261.083,238.296 -22.768,22.768 -13.457,-13.457 22.768,-22.768 z"
                 style="fill:#eaeeef"
                 inkscape:connector-curvature="0" />
              <path
                 id="path5242"
                 d="M 212.094,189.338 189.326,212.106 175.54,198.32 198.308,175.552 Z"
                 style="fill:#eaeeef"
                 inkscape:connector-curvature="0" />
              <path
                 id="path5244"
                 d="M 104.501,81.748 81.733,104.485 68.31,91.059 91.048,68.291 Z"
                 style="fill:#eaeeef"
                 inkscape:connector-curvature="0" />
              <path
                 id="path5246"
                 d="M 55.544,32.758 32.777,55.526 18.99,41.74 41.758,18.972 Z"
                 style="fill:#eaeeef"
                 inkscape:connector-curvature="0" />
              <path
                 id="path5248"
                 d="m 244.563,38.736 c -0.811,0.781 -2.103,0.781 -2.883,0 -0.811,-0.811 -0.811,-2.103 0,-2.883 0.39,-0.421 0.901,-0.601 1.442,-0.601 0.511,0 1.021,0.18 1.442,0.601 0.779,0.78 0.779,2.072 -0.001,2.883 z"
                 style="fill:#eaeeef"
                 inkscape:connector-curvature="0" />
              <path
                 id="path5250"
                 d="m 198.158,41.859 40.369,40.369 c -5.316,5.016 -12.255,7.779 -19.584,7.779 -7.629,0 -14.808,-2.974 -20.184,-8.35 -0.03,0 -0.03,0 -0.03,0 -5.377,-5.407 -8.35,-12.585 -8.35,-20.214 -0.003,-7.329 2.76,-14.267 7.779,-19.584 z"
                 style="fill:#c5cbcf"
                 inkscape:connector-curvature="0" />
              <path
                 id="path5252"
                 d="m 210.932,79.997 c 6.851,0 13.342,-2.442 18.505,-6.854 L 198.157,41.86 c -5.016,5.316 -7.779,12.255 -7.779,19.584 0,4.361 1,8.56 2.838,12.378 5.015,3.988 11.194,6.175 17.716,6.175 z"
                 style="fill:#eaeeef"
                 inkscape:connector-curvature="0" />
              <path
                 id="path5254"
                 d="M 66.655,43.872 79.931,57.178 57.165,79.915 43.89,66.639 Z"
                 style="fill:#505967"
                 inkscape:connector-curvature="0" />
              <path
                 id="path5256"
                 d="m 165.177,77.543 37.666,37.695 -6.491,6.488 -37.696,-37.666 z"
                 style="fill:#505967"
                 inkscape:connector-curvature="0" />
              <path
                 id="path5258"
                 d="m 116.549,201.533 -7.419,7.389 -37.669,-37.666 7.392,-7.389 z"
                 style="fill:#505967"
                 inkscape:connector-curvature="0" />
              <path
                 id="path5260"
                 d="m 236.514,213.727 -22.768,22.768 -13.276,-13.276 22.768,-22.768 z"
                 style="fill:#505967"
                 inkscape:connector-curvature="0" />
              <path
                 id="path5262"
                 d="m 185.21,132.84 -57.55,57.579 -37.666,-37.695 57.553,-57.55 z"
                 style="fill:#eaeeef"
                 inkscape:connector-curvature="0" />
              <path
                 id="path5264"
                 d="m 277.754,232.74 c 3.064,3.064 3.064,8.05 0,11.113 l -33.881,33.881 c -1.532,1.562 -3.544,2.313 -5.557,2.313 -2.012,0 -4.025,-0.751 -5.557,-2.313 L 158.87,203.875 c -1.472,-1.472 -2.313,-3.484 -2.313,-5.557 0,-2.103 0.841,-4.085 2.313,-5.557 l 11.053,-11.053 -5.647,-5.647 -49.59,49.56 c -1.532,1.532 -3.544,2.283 -5.557,2.283 -2.013,0 -4.025,-0.751 -5.557,-2.283 L 54.763,176.812 c -3.064,-3.064 -3.064,-8.05 0,-11.113 l 49.59,-49.56 -6.007,-6.007 -11.053,11.053 c -1.532,1.532 -3.544,2.313 -5.557,2.313 -2.013,0 -4.025,-0.781 -5.557,-2.313 L 2.321,47.296 c -3.094,-3.064 -3.094,-8.05 0,-11.113 L 36.201,2.302 c 3.064,-3.064 8.05,-3.064 11.113,0 l 73.889,73.859 c 3.064,3.094 3.064,8.05 0,11.143 l -11.743,11.715 6.007,5.977 44.153,-44.123 c 3.064,-3.064 8.05,-3.064 11.113,0 l 4.085,4.085 c -0.09,-1.171 -0.18,-2.313 -0.18,-3.514 0,-11.804 4.626,-22.948 12.976,-31.298 L 192.6,25.16 c 2.944,-2.944 8.17,-2.944 11.113,0 l 20.184,20.214 2.433,-2.433 c -2.073,-6.218 -0.721,-13.306 4.205,-18.232 6.938,-6.908 18.202,-6.908 25.14,0 3.454,3.484 5.196,8.02 5.196,12.555 0,4.566 -1.742,9.131 -5.196,12.585 -3.454,3.454 -8.02,5.196 -12.555,5.196 -1.922,0 -3.815,-0.39 -5.647,-0.991 l -2.433,2.433 20.184,20.184 c 1.472,1.472 2.313,3.484 2.313,5.557 0,2.103 -0.841,4.115 -2.313,5.587 l -4.986,4.956 c -8.35,8.38 -19.464,12.976 -31.298,12.976 -1.171,0 -2.343,-0.09 -3.514,-0.18 l 4.085,4.085 c 3.094,3.094 3.094,8.05 0,11.143 l -44.123,44.123 5.647,5.677 11.714,-11.744 c 1.472,-1.472 3.484,-2.283 5.557,-2.283 2.103,0 4.085,0.811 5.587,2.283 z m -39.441,28.325 22.768,-22.768 -13.456,-13.456 -22.768,22.768 z m 6.25,-222.329 c 0.781,-0.811 0.781,-2.103 0,-2.883 -0.421,-0.421 -0.931,-0.601 -1.442,-0.601 -0.541,0 -1.051,0.18 -1.442,0.601 -0.811,0.781 -0.811,2.073 0,2.883 0.783,0.781 2.069,0.781 2.884,0 z m -6.041,43.492 -40.369,-40.369 c -5.016,5.316 -7.779,12.255 -7.779,19.584 0,7.629 2.974,14.808 8.35,20.214 0,0 0,0 0.03,0 5.377,5.377 12.555,8.35 20.184,8.35 7.33,10e-4 14.272,-2.763 19.584,-7.779 z m -24.78,154.267 22.768,-22.768 -13.276,-13.276 -22.768,22.768 z m -24.416,-24.39 22.768,-22.768 -13.787,-13.787 -22.768,22.768 z m 13.517,-96.867 -37.666,-37.696 -6.518,6.518 37.696,37.666 z m -75.183,75.181 57.55,-57.58 -37.666,-37.666 -57.55,57.55 z m -18.53,18.503 7.419,-7.389 -37.696,-37.666 -7.389,7.389 z M 81.733,104.485 104.501,81.747 91.045,68.291 68.307,91.059 Z M 79.931,57.178 66.655,43.872 43.889,66.639 57.165,79.915 Z M 32.778,55.526 55.546,32.758 41.757,18.972 18.99,41.739 Z"
                 style="fill:#2d213f"
                 inkscape:connector-curvature="0" />
            </g>
          </g>
          <path
             id="path5269"
             d="m 175.042,100.43 21.314,21.296 6.488,-6.488 -23.828,-23.846 c -1.106,2.686 -2.425,5.71 -3.974,9.038 z"
             style="fill:#454d5b"
             inkscape:connector-curvature="0" />
          <path
             id="path5271"
             d="m 109.13,208.922 7.419,-7.389 -12.759,-12.747 c -2.802,2.082 -5.707,4.115 -8.69,6.109 z"
             style="fill:#454d5b"
             inkscape:connector-curvature="0" />
          <path
             id="path5273"
             d="m 116.134,178.885 11.525,11.534 57.55,-57.58 -17.682,-17.682 c -10.563,19.064 -27.037,42.685 -51.393,63.728 z"
             style="fill:#c5cbcf"
             inkscape:connector-curvature="0" />
        </g>
      </g>
      <g
         id="g5279" />
      <g
         id="g5281" />
      <g
         id="g5283" />
      <g
         id="g5285" />
      <g
         id="g5287" />
      <g
         id="g5289" />
      <g
         id="g5291" />
      <g
         id="g5293" />
      <g
         id="g5295" />
      <g
         id="g5297" />
      <g
         id="g5299" />
      <g
         id="g5301" />
      <g
         id="g5303" />
      <g
         id="g5305" />
      <g
         id="g5307" />
    </g>
  </g>
</svg>
